<?xml version="1.0" encoding="utf-8"?>
<!-- Generator: Adobe Illustrator 21.1.0, SVG Export Plug-In . SVG Version: 6.00 Build 0)  -->
<svg version="1.1" id="Layer_1" xmlns="http://www.w3.org/2000/svg" xmlns:xlink="http://www.w3.org/1999/xlink" x="0px" y="0px"
	 viewBox="0 0 105.4 36.7" style="enable-background:new 0 0 105.4 36.7;" xml:space="preserve">
<style type="text/css">
	.st0{fill:#FFFFFF;}
</style>
<g>
	<g>
		<path class="st0" d="M26.2,18.2c0,1.5-0.3,2.8-1,4c-0.6,1.2-1.5,2.1-2.5,2.8c-0.7,0.5-1.6,0.8-2.5,1s-2.1,0.3-3.6,0.3h-4.1V10.1h4
			c1.6,0,2.8,0.1,3.7,0.3c0.9,0.2,1.7,0.5,2.4,0.9c1.1,0.7,2,1.6,2.6,2.7C25.8,15.3,26.2,16.7,26.2,18.2z M23.9,18.2
			c0-1.3-0.2-2.3-0.7-3.2c-0.4-0.9-1.1-1.5-2-2c-0.6-0.4-1.3-0.6-2-0.8c-0.7-0.1-1.5-0.2-2.5-0.2h-2v12.4h2c1,0,1.9-0.1,2.7-0.2
			c0.8-0.2,1.5-0.4,2.1-0.8c0.8-0.5,1.4-1.2,1.8-2C23.7,20.5,23.9,19.4,23.9,18.2z"/>
		<path class="st0" d="M38.7,20.2c0,2-0.5,3.5-1.5,4.7c-1,1.1-2.4,1.7-4.1,1.7c-1.7,0-3.1-0.6-4.1-1.7s-1.5-2.7-1.5-4.7
			s0.5-3.5,1.5-4.7s2.4-1.7,4.1-1.7c1.7,0,3,0.6,4.1,1.7C38.2,16.7,38.7,18.3,38.7,20.2z M36.6,20.2c0-1.6-0.3-2.7-0.9-3.5
			c-0.6-0.8-1.5-1.1-2.6-1.1c-1.1,0-2,0.4-2.6,1.1c-0.6,0.8-0.9,1.9-0.9,3.5c0,1.5,0.3,2.7,0.9,3.4c0.6,0.8,1.5,1.2,2.6,1.2
			c1.1,0,1.9-0.4,2.5-1.2C36.3,22.9,36.6,21.8,36.6,20.2z"/>
		<path class="st0" d="M50.9,26.3h-2v-6.9c0-0.6,0-1.1-0.1-1.6s-0.2-0.9-0.4-1.1c-0.2-0.3-0.4-0.5-0.8-0.7c-0.3-0.1-0.8-0.2-1.3-0.2
			c-0.6,0-1.1,0.1-1.7,0.4c-0.6,0.3-1.2,0.6-1.7,1v9h-2v-12h2v1.3c0.6-0.5,1.3-0.9,2-1.2c0.7-0.3,1.4-0.4,2.1-0.4
			c1.3,0,2.3,0.4,3,1.2c0.7,0.8,1,1.9,1,3.4L50.9,26.3L50.9,26.3z"/>
		<path class="st0" d="M63.2,26.3h-2V25c-0.2,0.1-0.4,0.3-0.7,0.5c-0.3,0.2-0.6,0.4-0.9,0.5c-0.3,0.2-0.7,0.3-1.2,0.4
			c-0.4,0.1-1,0.2-1.5,0.2c-1.1,0-2-0.4-2.8-1.1c-0.8-0.7-1.1-1.6-1.1-2.8c0-0.9,0.2-1.7,0.6-2.2c0.4-0.6,1-1,1.7-1.3
			c0.7-0.3,1.6-0.5,2.7-0.7c1-0.1,2.1-0.2,3.3-0.3V18c0-0.5-0.1-0.8-0.2-1.1c-0.2-0.3-0.4-0.5-0.7-0.7c-0.3-0.2-0.6-0.3-1-0.3
			c-0.4-0.1-0.8-0.1-1.3-0.1S57,15.9,56.3,16c-0.7,0.1-1.3,0.3-2,0.6h-0.1v-2.1c0.4-0.1,1-0.2,1.7-0.4c0.8-0.1,1.5-0.2,2.2-0.2
			c0.9,0,1.6,0.1,2.2,0.2c0.6,0.1,1.2,0.4,1.6,0.7c0.5,0.3,0.8,0.8,1,1.3s0.4,1.2,0.4,2v8.2H63.2z M61.2,23.3v-3.4
			c-0.6,0-1.4,0.1-2.2,0.2c-0.8,0.1-1.5,0.2-2,0.3c-0.6,0.2-1.1,0.4-1.4,0.8c-0.4,0.4-0.5,0.8-0.5,1.4c0,0.7,0.2,1.2,0.6,1.6
			c0.4,0.4,1.1,0.5,1.9,0.5c0.7,0,1.4-0.1,2-0.4C60.1,24,60.7,23.7,61.2,23.3z"/>
		<path class="st0" d="M72.3,26.1c-0.4,0.1-0.8,0.2-1.2,0.2c-0.5,0.1-0.9,0.1-1.2,0.1c-1.2,0-2.2-0.3-2.8-1c-0.6-0.7-1-1.7-1-3.2
			v-6.4h-1.4v-1.7h1.4v-3.5h2v3.5h4.2v1.7h-4.2v5.5c0,0.6,0,1.1,0,1.5s0.1,0.7,0.3,1c0.2,0.3,0.4,0.5,0.7,0.6
			c0.3,0.1,0.7,0.2,1.3,0.2c0.3,0,0.7,0,1-0.1c0.4-0.1,0.6-0.2,0.8-0.2h0.1C72.3,24.3,72.3,26.1,72.3,26.1z"/>
		<path class="st0" d="M83.9,20.4H75c0,0.7,0.1,1.4,0.3,1.9c0.2,0.6,0.5,1,0.9,1.4c0.4,0.3,0.8,0.6,1.3,0.8c0.5,0.2,1.1,0.3,1.7,0.3
			c0.8,0,1.6-0.2,2.5-0.5c0.8-0.3,1.4-0.7,1.8-1h0.1v2.2c-0.7,0.3-1.4,0.5-2.1,0.7s-1.5,0.3-2.3,0.3c-2,0-3.6-0.5-4.7-1.6
			s-1.7-2.6-1.7-4.6s0.5-3.5,1.6-4.7s2.5-1.7,4.3-1.7c1.6,0,2.9,0.5,3.8,1.4c0.9,1,1.3,2.3,1.3,4.1L83.9,20.4L83.9,20.4z M81.9,18.9
			c0-1.1-0.3-1.9-0.8-2.5s-1.3-0.9-2.4-0.9s-2,0.3-2.6,1c-0.6,0.6-1,1.4-1.1,2.4H81.9z"/>
	</g>
	<g>
		<rect x="86.8" y="12.7" class="st0" width="3.7" height="3.7"/>
		<polygon class="st0" points="92.9,14.5 91.9,14.5 91.9,11.3 88.6,11.3 88.6,10.3 92.9,10.3 		"/>
	</g>
</g>
</svg>
