<?xml version="1.0" encoding="utf-8"?>
<!-- Generator: Adobe Illustrator 21.1.0, SVG Export Plug-In . SVG Version: 6.00 Build 0)  -->
<svg version="1.1" id="Layer_1" xmlns="http://www.w3.org/2000/svg" xmlns:xlink="http://www.w3.org/1999/xlink" x="0px" y="0px"
	 viewBox="0 0 59 59" style="enable-background:new 0 0 59 59;" xml:space="preserve">
<style type="text/css">
	.st0{fill:#FFFFFF;}
</style>
<g>
	<path class="st0" d="M16.2,37.5H14v-7.8H6v7.8H3.9v-16H6v6.3h8v-6.3h2.1v16H16.2z"/>
	<path class="st0" d="M29.3,31.7h-8.8c0,0.7,0.1,1.4,0.3,1.9c0.2,0.5,0.5,1,0.9,1.3s0.8,0.6,1.3,0.8s1.1,0.3,1.7,0.3
		c0.8,0,1.6-0.2,2.5-0.5c0.8-0.3,1.4-0.6,1.8-1h0.1v2.2c-0.7,0.3-1.4,0.5-2.1,0.7s-1.5,0.3-2.2,0.3c-2,0-3.5-0.5-4.7-1.6
		c-1.1-1.1-1.7-2.6-1.7-4.6s0.5-3.5,1.6-4.7c1.1-1.2,2.5-1.7,4.2-1.7c1.6,0,2.9,0.5,3.7,1.4s1.3,2.3,1.3,4v1.2H29.3z M27.4,30.1
		c0-1.1-0.3-1.9-0.8-2.5s-1.3-0.9-2.4-0.9s-1.9,0.3-2.6,1c-0.6,0.6-1,1.4-1.1,2.4C20.5,30.1,27.4,30.1,27.4,30.1z"/>
	<path class="st0" d="M33.8,37.5h-2V21.3h2V37.5z"/>
	<path class="st0" d="M46.7,31.3c0,1-0.1,1.9-0.4,2.7c-0.3,0.8-0.7,1.5-1.2,2s-1,0.9-1.7,1.2c-0.6,0.3-1.3,0.4-2,0.4
		c-0.6,0-1.2-0.1-1.7-0.2c-0.5-0.1-1-0.3-1.5-0.6v5h-2V25.5h2v1.3c0.5-0.5,1.1-0.8,1.8-1.1c0.7-0.3,1.4-0.5,2.1-0.5
		c1.4,0,2.6,0.5,3.4,1.6C46.3,27.9,46.7,29.4,46.7,31.3z M44.6,31.4c0-1.4-0.2-2.5-0.7-3.2c-0.5-0.7-1.3-1.1-2.3-1.1
		c-0.6,0-1.2,0.1-1.8,0.4s-1.2,0.6-1.7,1v6.8c0.6,0.3,1.1,0.4,1.5,0.5c0.4,0.1,0.9,0.1,1.4,0.1c1.1,0,2-0.4,2.6-1.1
		C44.3,34,44.6,32.9,44.6,31.4z"/>
	<rect x="49" y="23.7" class="st0" width="3.7" height="3.7"/>
	<polygon class="st0" points="55.1,25.5 54.1,25.5 54.1,22.3 50.9,22.3 50.9,21.3 55.1,21.3 	"/>
</g>
</svg>
