<?xml version="1.0" encoding="utf-8"?>
<!-- Generator: Adobe Illustrator 21.1.0, SVG Export Plug-In . SVG Version: 6.00 Build 0)  -->
<svg version="1.1" id="Layer_1" xmlns="http://www.w3.org/2000/svg" xmlns:xlink="http://www.w3.org/1999/xlink" x="0px" y="0px"
	 viewBox="0 0 246 68" style="enable-background:new 0 0 246 68;" xml:space="preserve">
<style type="text/css">
	.st0{display:none;}
	.st1{display:inline;}
	.st2{fill:#007EA7;}
</style>
<g>
	<path class="st0" d="M172.2,29.9c0-0.9-0.7-1.6-1.6-1.6S169,29,169,29.9s0.7,1.6,1.6,1.6c2,0,3.9,1,5.1,2.5
		c0.9,1.1,1.4,2.5,1.4,4.1c0,3.6-2.9,6.4-6.5,6.4s-6.5-2.8-6.5-6.5h4.9c0,0.9,0.7,1.6,1.6,1.6s1.6-0.7,1.6-1.6s-0.7-1.6-1.6-1.6
		c-3.6,0-6.4-2.9-6.4-6.4s2.9-6.5,6.4-6.5s6.5,2.9,6.5,6.4C177.1,29.9,172.2,29.9,172.2,29.9z"/>
</g>
<g class="st0">
	<path class="st1" d="M90.3,30.9v14.7c0,4.3-3,7.2-7.6,7.2c-2.2,0-4.8-0.9-6.4-2.2l1-2.7c1.4,1,3.4,1.7,5.1,1.8
		c2.7,0,4.3-1.6,4.3-4.2v-2.2c-1,1.7-2.6,2.5-4.9,2.6c-3.7,0-6-2.2-6-5.8v-9.3h3.7V39c0,2.1,1.3,3.4,3.3,3.4c2.4,0,3.9-1.7,3.9-4.5
		v-7.1L90.3,30.9L90.3,30.9z"/>
</g>
<g>
	<rect x="164.4" y="14.3" class="st2" width="16.7" height="1.1"/>
	<rect x="109.2" y="14.3" class="st2" width="40.2" height="1.1"/>
	<rect x="196.1" y="14.3" class="st2" width="43" height="1.1"/>
	<rect x="84.7" y="53.1" class="st2" width="154.3" height="1.1"/>
	<g>
		<path class="st2" d="M84.7,34.2c0-3.8,0.8-6.8,2.4-8.9s3.8-3.2,6.6-3.2c1.8,0,3.4,0.4,4.7,1.2c1.4,0.8,2.5,2,3.3,3.6V12.6h1.2
			v33.8h-1.2v-3.8c-0.8,1.4-1.9,2.4-3.3,3.1c-1.4,0.7-3,1.1-4.8,1.1c-2.8,0-4.9-1.1-6.5-3.3s-2.4-5.2-2.4-9
			C84.7,34.5,84.7,34.2,84.7,34.2z M85.9,34.7c0,3.4,0.7,6,2,8s3.2,2.9,5.7,2.9c2,0,3.6-0.4,5-1.3c1.4-0.9,2.4-2.2,3.1-3.8V29.3
			c-1.4-4-4.1-6-8.1-6c-2.4,0-4.3,1-5.7,2.9C86.6,28.1,85.9,30.9,85.9,34.7z"/>
		<path class="st2" d="M118.8,46.8c-1.9,0-3.7-0.5-5.3-1.6s-2.9-2.5-3.8-4.3s-1.4-3.8-1.4-6v-1c0-2.2,0.4-4.2,1.3-6.1
			s2.1-3.3,3.6-4.3c1.5-1,3.2-1.5,5-1.5c2.7,0,4.8,0.9,6.5,2.8s2.5,4.4,2.5,7.5v1.3h-17.8V35c0,1.9,0.4,3.7,1.2,5.4
			c0.8,1.6,1.9,2.9,3.4,3.9c1.4,0.9,3,1.4,4.7,1.4c1.6,0,3-0.3,4.1-0.8s2.1-1.4,3-2.5l0.8,0.6C124.9,45.5,122.3,46.8,118.8,46.8z
			 M118.3,23.3c-2.3,0-4.3,0.9-5.9,2.6s-2.6,3.9-2.8,6.6h16.6v-0.3c0-1.6-0.3-3.1-1-4.5s-1.6-2.5-2.8-3.2
			C121.1,23.7,119.8,23.3,118.3,23.3z"/>
		<path class="st2" d="M141.1,45.6c2.2,0,3.9-0.6,5.3-1.7s2.2-2.7,2.3-4.8h1.2c-0.1,2.3-1,4.2-2.7,5.6c-1.7,1.4-3.7,2.1-6.2,2.1
			c-3,0-5.3-1.1-7.1-3.2s-2.6-5.1-2.6-8.8V34c0-3.6,0.9-6.5,2.6-8.6s4.1-3.2,7.1-3.2c2.5,0,4.6,0.8,6.2,2.3c1.6,1.5,2.5,3.5,2.6,6
			h-1.2c-0.1-2.1-0.9-3.9-2.3-5.2s-3.2-1.9-5.4-1.9c-2.7,0-4.7,1-6.2,2.9s-2.3,4.6-2.3,8v0.8c0,3.3,0.8,5.9,2.3,7.8
			C136.3,44.7,138.4,45.6,141.1,45.6z"/>
		<path class="st2" d="M155.7,15.1c0-0.3,0.1-0.6,0.4-0.9c0.2-0.2,0.5-0.4,0.9-0.4c0.3,0,0.6,0.1,0.9,0.4c0.2,0.2,0.4,0.5,0.4,0.9
			s-0.1,0.6-0.4,0.9c-0.2,0.2-0.5,0.4-0.9,0.4c-0.3,0-0.6-0.1-0.9-0.4C155.8,15.7,155.7,15.5,155.7,15.1z M157.5,46.4h-1.2V22.6h1.2
			V46.4z"/>
		<path class="st2" d="M180,40.5c0-2.9-2.5-4.9-7.4-5.9c-3-0.6-5-1.4-6.2-2.4s-1.7-2.4-1.7-4.1s0.7-3.2,2.2-4.3s3.4-1.7,5.8-1.7
			c2.6,0,4.6,0.6,6.2,1.8c1.6,1.2,2.3,2.9,2.3,5H180c0-1.6-0.7-2.9-2-4c-1.4-1.1-3.1-1.6-5.3-1.6c-2.1,0-3.7,0.5-5,1.4
			c-1.2,0.9-1.8,2-1.8,3.4c0,1.1,0.2,1.9,0.7,2.5s1.2,1.2,2.2,1.7c1,0.5,2.5,1,4.5,1.4c2,0.5,3.5,1,4.7,1.6c1.1,0.6,2,1.3,2.5,2.2
			c0.5,0.8,0.8,1.9,0.8,3.1c0,1.9-0.8,3.4-2.3,4.5s-3.6,1.7-6.1,1.7c-2.7,0-4.8-0.6-6.5-1.8c-1.6-1.2-2.5-2.8-2.5-4.7h1.2
			c0.1,1.7,0.9,3,2.2,3.9c1.4,0.9,3.2,1.4,5.5,1.4c2.1,0,3.9-0.5,5.2-1.5C179.3,43.1,180,41.9,180,40.5z"/>
		<path class="st2" d="M187.4,15.1c0-0.3,0.1-0.6,0.4-0.9c0.2-0.2,0.5-0.4,0.9-0.4c0.3,0,0.6,0.1,0.9,0.4c0.2,0.2,0.4,0.5,0.4,0.9
			s-0.1,0.6-0.4,0.9c-0.2,0.2-0.5,0.4-0.9,0.4c-0.3,0-0.6-0.1-0.9-0.4C187.5,15.7,187.4,15.5,187.4,15.1z M189.2,46.4H188V22.6h1.2
			V46.4z"/>
		<path class="st2" d="M195.1,34c0-2.3,0.4-4.3,1.3-6.1c0.9-1.8,2.1-3.2,3.7-4.2c1.6-1,3.4-1.5,5.4-1.5s3.8,0.5,5.4,1.5
			s2.8,2.4,3.7,4.2c0.9,1.8,1.3,3.8,1.4,6.1v1.1c0,2.3-0.4,4.3-1.3,6.1c-0.9,1.8-2.1,3.2-3.7,4.2c-1.6,1-3.4,1.5-5.4,1.5
			s-3.8-0.5-5.4-1.5s-2.8-2.4-3.7-4.2s-1.3-3.8-1.3-6.1L195.1,34L195.1,34z M196.3,34.9c0,2,0.4,3.8,1.2,5.4
			c0.8,1.7,1.9,2.9,3.3,3.9c1.4,0.9,3,1.4,4.8,1.4c2.7,0,4.9-1,6.6-3.1s2.6-4.7,2.6-7.9V34c0-2-0.4-3.8-1.2-5.4s-1.9-3-3.3-3.9
			c-1.4-0.9-3-1.4-4.8-1.4c-2.7,0-4.9,1-6.6,3.1s-2.6,4.7-2.6,7.8V34.9z"/>
		<path class="st2" d="M223,28.1c0.8-1.8,1.9-3.3,3.4-4.4s3.2-1.6,5-1.6c2.6,0,4.4,0.7,5.7,2.2c1.2,1.4,1.9,3.6,1.9,6.5v15.5h-1.2
			V30.8c0-2.5-0.5-4.4-1.6-5.7c-1-1.2-2.7-1.8-4.9-1.8c-2.1,0-3.8,0.7-5.3,2.2s-2.5,3.3-3,5.6v15.2h-1.2V22.6h1.2L223,28.1L223,28.1
			z"/>
	</g>
	<path class="st2" d="M26.3,42.9c0-0.2,0-12.7,0-12.7c0-2.6-0.8-4.7-2.6-6c-1.6-1.4-3.9-2.1-6.6-2.1c-1.8,0-3.4,0.3-5,0.8
		c-1.4,0.5-2.9,1.3-3.9,2.1L8,25.2v5h4.3v-2.6c0.5-0.3,1-0.6,1.8-1c0.8-0.3,1.6-0.3,2.6-0.3c1.4,0,2.6,0.3,3.2,1.1
		C20.7,28,21,29,21,30.3v2.3h-3.9c-3.2,0-5.6,0.6-7.4,1.8C7.9,35.7,7,37.5,7,39.7c0,2.3,0.6,4,1.9,5.2c1.3,1.3,3.2,1.9,5.8,1.9
		c1.4,0,2.7-0.3,4-1.1c1-0.5,1.8-1.1,2.4-1.8c0,0.2,0,2.4,0,2.4h6.8v-3.4L26.3,42.9L26.3,42.9z M13.4,37.1c1-0.8,2.3-1.1,3.9-1.1h4
		v3.2C20.8,40,20,40.8,19,41.3c-1.1,0.6-2.3,1-3.5,1c-1.1,0-2.1-0.2-2.6-0.6s-0.8-1.1-0.8-1.9C12.1,38.7,12.4,37.8,13.4,37.1z"/>
	<path class="st2" d="M53,42.9V31.3c0-3.1-0.6-5.5-2.1-6.9s-3.5-2.3-6.1-2.3c-1.6,0-2.9,0.3-4.2,1.1c-1,0.5-1.8,1.3-2.4,2.1v-2.7H30
		V26h3.5v16.9H30v3.4h11.9v-3.4h-3.5V29.2c0.5-1,1.1-1.6,2.1-2.1c0.8-0.5,1.9-0.8,3.1-0.8c1.4,0,2.7,0.3,3.4,1.1
		c0.8,0.8,1.1,2.1,1.1,4v11.4h-3.5v3.4h11.9v-3.4L53,42.9L53,42.9z"/>
	<path class="st2" d="M71.3,22.5v3.4h2.4l-4.3,13.2l-4.3-13.2h2.4v-3.4H57.4v3.4h2.3L67,45.3l-1,2.3c-0.3,1-0.8,1.8-1.4,2.6
		c-0.5,0.6-1.1,1-1.9,1c-0.2,0-2.3-0.3-2.3-0.3L59.9,55c0,0,1,0.2,1.6,0.3c0.5,0.2,1,0.2,1.3,0.2c1.9,0,3.5-0.6,4.7-1.8
		c1.1-1.1,1.9-2.6,2.6-4.2l8.7-23.7h2.1v-3.4L71.3,22.5z"/>
</g>
</svg>
